<?xml version="1.0" encoding="utf-8"?>
<!-- Generator: Adobe Illustrator 26.0.1, SVG Export Plug-In . SVG Version: 6.00 Build 0)  -->
<svg version="1.1" id="Layer_1" xmlns="http://www.w3.org/2000/svg" xmlns:xlink="http://www.w3.org/1999/xlink" x="0px" y="0px"
	 viewBox="0 0 680.31 382.68" style="enable-background:new 0 0 680.31 382.68;" xml:space="preserve">
<style type="text/css">
	.st0{fill:#A43042;}
	.st1{fill:#C24246;}
	.st2{fill:#EF7B48;}
	.st3{fill:#F09D3E;}
</style>
<g>
	<g>
		<g transform="matrix( 1, 0, 0, 1, 0,0) ">
			<g>
				<g id="Layer0_0_FILL">
					<path class="st0" d="M184.12,231.81l0-0.02c-0.38,0.45-1.14,1.06-2.28,1.82l0.02,0l-1.31,0.97c0.02,0.79,0.03,2.04,0.03,3.76
						c1.76-0.58,3.67-1.26,5.75-2.06c0.56-0.55,0.85-1.42,0.86-2.59c0.02-1.07-0.13-1.98-0.43-2.73c0,0-0.01,0-0.02-0.01
						c-0.14-0.32-0.48-0.4-1.03-0.24l0,0C185.12,230.94,184.59,231.3,184.12,231.81 M178.88,229.64L178.88,229.64
						c-1.09-1.64-2.27-2.42-3.53-2.33c0,0-0.01,0-0.02,0c-0.29,0.02-0.49,0.24-0.58,0.64l0-0.02c-0.12,0.56-0.14,1.52-0.07,2.87
						c0.1,1.78,0.18,3.82,0.24,6.12c0.87,1.31,1.48,2.11,1.82,2.39c0.95-0.19,1.94-0.44,2.99-0.74c0.02,0,0.05,0,0.06-0.01
						c0.05-0.01,0.09-0.02,0.14-0.03c0-1.93,0-3.29-0.02-4.08l0-0.02c0-0.26,0-0.46-0.02-0.59l0-0.02
						C179.77,231.86,179.43,230.46,178.88,229.64 M163.55,225.89l-0.02,0c-0.92,0.04-1.61,0.25-2.08,0.61l0,0
						c-0.21,0.2-0.32,0.4-0.33,0.62c0.03,0.24,0.17,0.51,0.42,0.8l0,0c0.64,0.7,1.7,2.34,3.16,4.91l0-0.02
						c1.3,2.18,2.35,4.09,3.15,5.72c1.29,0.41,2.2,0.69,2.75,0.84l0,0c1.48,0.37,3.27,0.39,5.38,0.06c-0.4-0.45-0.94-1.2-1.63-2.24
						c-0.01-0.01-0.01-0.03-0.02-0.05c-0.16-0.29-0.36-0.6-0.58-0.92c-1.38-2.05-2.61-4.07-3.68-6.06
						C168.5,227.25,166.32,225.82,163.55,225.89 M153.89,234.84l0,0.02c-1.85-0.05-3.25,0.41-4.2,1.37
						c-0.5,0.59-0.82,1.22-0.97,1.87c0.09,0.23,1.36,0.85,3.81,1.87c3.9,1.55,6.09,2.46,6.56,2.73c0.01,0,0.03,0.01,0.03,0.01
						c2.03,0.94,4.58,1.96,7.64,3.05c1.61,0.56,3.01,1.04,4.18,1.43c0.03,0.01,0.05,0.02,0.07,0.02l0.02,0
						c1.37,0.36,2.42,0.56,3.15,0.61l0,0c2.01,0.07,8.52-0.69,19.53-2.3c0.09-0.01,0.17,0.01,0.23,0.05
						c0.08,0.06,0.12,0.13,0.13,0.21c0.01,0.09-0.01,0.17-0.07,0.23c-0.05,0.08-0.12,0.12-0.21,0.13
						c-11.08,1.62-17.62,2.39-19.64,2.31l-0.02-0.01c-0.64-0.04-1.53-0.2-2.66-0.47c0.52,0.96,1.24,1.92,2.16,2.88
						c1.27,1.32,2.45,2.05,3.54,2.19l-0.02,0c0.72,0.05,1.72,0.07,2.98,0.07l0.02,0c3.13-0.02,7.92-0.31,14.36-0.89
						c0.09-0.01,0.17,0.01,0.23,0.07c0.07,0.06,0.11,0.13,0.12,0.21c0.01,0.09-0.01,0.17-0.07,0.23c-0.06,0.07-0.13,0.11-0.23,0.12
						c-6.16,0.55-10.8,0.85-13.95,0.89l0.47,1.11l0-0.02c0.49,1.02,0.95,1.67,1.39,1.96c0.59,0.36,2.94,0.61,7.06,0.74
						c4.24,0.19,8.06,0.18,11.47-0.03l0,0c0.44-0.02,0.88-0.05,1.31-0.1c0.33-0.1,0.66-0.17,0.99-0.2
						c14-1.53,26.01-6.71,36.04-15.52c-3.44,1.15-7.14,0.91-11.09-0.74c-1.75-0.72-3.15-1.62-4.21-2.72
						c-0.46-0.48-1.39-1.73-2.81-3.76c-0.64-0.91-1.54-1.88-2.69-2.9c-1.35-1.2-2.7-2.12-4.04-2.77c-2.93-1.44-5.4-2.49-7.41-3.13
						l0-0.02c-2.35-0.69-9.94-4.58-22.76-11.68c-0.46-0.25-0.83-0.26-1.12-0.04c-0.33,0.3-0.56,0.9-0.71,1.78l0,0
						c-0.33,1.83-0.11,3.22,0.67,4.19l0.02,0c0.6,0.74,2.52,2.01,5.77,3.8l0.02,0.01c3.68,2.16,5.58,3.28,5.69,3.36l0,0
						c2.48,1.84,3.62,3.54,3.4,5.09c-0.09,1.33-3.92,2.9-11.48,4.71c-2.25,0.85-4.31,1.58-6.2,2.19c-0.02,0.01-0.06,0.02-0.09,0.03
						c-0.16,0.05-0.31,0.08-0.43,0.1c-1.09,0.31-2.14,0.57-3.13,0.77l-0.02,0c0,0-0.01,0-0.02,0c-2.48,0.44-4.57,0.46-6.26,0.03
						l-0.02-0.01c-0.56-0.15-1.5-0.45-2.85-0.9c-0.02,0-0.04,0-0.06-0.01c-1.5-0.56-3.44-1.27-5.83-2.16
						C158.28,235.65,155.67,234.95,153.89,234.84z"/>
				</g>
			</g>
		</g>
		<g transform="matrix( 1, 0, 0, 1, 0,0) ">
			<g>
				<g id="Layer0_1_FILL">
					<path class="st1" d="M153.91,177.43l0.02,0l-0.99-1.31c-0.77,0.01-2.02,0.02-3.75,0.03c0.57,1.76,1.26,3.68,2.04,5.75
						c0.56,0.56,1.42,0.85,2.59,0.86c1.08,0.02,1.99-0.12,2.73-0.43l0.02,0c0.33-0.15,0.41-0.5,0.24-1.03l0-0.02
						c-0.21-0.6-0.57-1.13-1.08-1.58C155.29,179.32,154.68,178.57,153.91,177.43 M150.61,170.52c-1.3,0.86-2.1,1.46-2.38,1.8
						c0.2,0.94,0.44,1.94,0.73,3c0.01,0.01,0.02,0.02,0.02,0.05c0.01,0.05,0.01,0.1,0.02,0.16c1.94-0.01,3.3-0.02,4.1-0.04l0.02,0
						c0.27,0,0.46,0,0.59-0.02l0.02,0c1.98-0.12,3.37-0.45,4.18-1l0.02,0c1.64-1.1,2.41-2.28,2.33-3.53c0-0.01,0-0.02,0-0.03
						c-0.02-0.29-0.23-0.49-0.64-0.58c-0.55-0.12-1.5-0.14-2.85-0.07C154.97,170.36,152.92,170.44,150.61,170.52 M149.01,163.45
						c-0.41,1.27-0.7,2.19-0.86,2.75l0.01-0.02c-0.37,1.48-0.39,3.28-0.06,5.39c0.45-0.41,1.2-0.96,2.23-1.64
						c0.01-0.01,0.02-0.02,0.03-0.02c0.3-0.16,0.61-0.35,0.92-0.56c2.06-1.39,4.08-2.62,6.06-3.68c2.94-1.58,4.38-3.76,4.3-6.54
						c-0.04-0.93-0.25-1.63-0.63-2.09l0,0.02c-0.18-0.22-0.39-0.33-0.61-0.33c-0.24,0.02-0.51,0.15-0.8,0.41l-0.01,0.02
						c-0.69,0.63-2.33,1.68-4.9,3.16l0-0.02C152.55,161.57,150.65,162.63,149.01,163.45 M152.69,149.46l0,0.02
						c0.05-1.86-0.41-3.27-1.38-4.22c-0.58-0.5-1.21-0.82-1.87-0.97c-0.21,0.09-0.84,1.36-1.87,3.83c-1.53,3.9-2.44,6.08-2.71,6.56
						l-0.01,0.02c-0.94,2.03-1.96,4.58-3.05,7.66c-0.57,1.6-1.05,2.99-1.45,4.18c0,0.01,0,0.03-0.01,0.05l-0.01,0.02
						c-0.35,1.37-0.55,2.43-0.61,3.17l0.01-0.02c-0.08,2.01,0.69,8.53,2.3,19.55c0.01,0.08-0.01,0.16-0.07,0.23
						c-0.05,0.07-0.12,0.11-0.21,0.12c-0.08,0.01-0.16-0.01-0.23-0.05c-0.07-0.06-0.11-0.13-0.12-0.21
						c-1.62-11.09-2.39-17.65-2.32-19.66c0.06-0.65,0.21-1.54,0.47-2.66c-0.95,0.51-1.91,1.22-2.86,2.14
						c-1.32,1.28-2.05,2.47-2.2,3.56l0-0.02c-0.04,0.71-0.06,1.71-0.05,2.98c0.02,3.13,0.31,7.93,0.89,14.38
						c0.01,0.08-0.01,0.16-0.07,0.23c-0.06,0.06-0.13,0.09-0.23,0.1c-0.08,0.01-0.16-0.01-0.23-0.07c-0.06-0.06-0.09-0.13-0.1-0.21
						c-0.56-6.17-0.86-10.82-0.89-13.95l-1.13,0.46l0.02,0c-1.01,0.48-1.66,0.95-1.96,1.41c-0.35,0.58-0.59,2.92-0.72,7.04
						c-0.19,4.24-0.18,8.06,0.03,11.47l0,0.02c0.02,0.43,0.05,0.87,0.1,1.31c0.1,0.32,0.17,0.64,0.2,0.98
						c1.54,13.99,6.7,26.01,15.51,36.04c-1.14-3.43-0.89-7.13,0.74-11.09c0.73-1.75,1.64-3.16,2.73-4.21
						c0.48-0.46,1.73-1.39,3.76-2.81c0.91-0.64,1.88-1.54,2.9-2.69c1.2-1.35,2.12-2.7,2.77-4.04c1.45-2.93,2.49-5.41,3.13-7.41
						c0.7-2.35,4.59-9.94,11.68-22.75c0.26-0.46,0.27-0.84,0.05-1.13c-0.3-0.33-0.9-0.56-1.79-0.69l0-0.02
						c-1.82-0.33-3.21-0.1-4.17,0.68l-0.02,0c-0.73,0.6-1.99,2.53-3.8,5.79c-2.16,3.68-3.28,5.58-3.36,5.71l-0.02,0
						c-1.84,2.47-3.53,3.6-5.09,3.4c-1.32-0.1-2.89-3.93-4.69-11.5c-0.85-2.25-1.58-4.31-2.19-6.18c-0.01-0.03-0.02-0.06-0.03-0.09
						c-0.05-0.17-0.08-0.32-0.1-0.45c-0.31-1.1-0.57-2.14-0.77-3.11l0-0.02c0-0.01,0-0.02,0-0.03c-0.44-2.48-0.45-4.57-0.03-6.26
						c0.16-0.57,0.46-1.52,0.9-2.85c0.01-0.03,0.01-0.06,0.02-0.08c0.56-1.5,1.27-3.44,2.16-5.83
						C151.9,153.85,152.59,151.25,152.69,149.46z"/>
				</g>
			</g>
		</g>
		<g transform="matrix( 1, 0, 0, 1, 0,0) ">
			<g>
				<g id="Layer0_2_FILL">
					<path class="st2" d="M207.92,150.9c0.39-0.44,1.15-1.05,2.28-1.82l0,0.02l1.31-0.99c-0.01-0.77-0.02-2.02-0.03-3.75
						c-1.76,0.57-3.68,1.26-5.75,2.04c-0.56,0.56-0.85,1.42-0.86,2.59c-0.02,1.08,0.12,1.99,0.43,2.73l0,0.02
						c0.15,0.33,0.5,0.41,1.03,0.24l0.02,0C206.94,151.76,207.47,151.4,207.92,150.9 M217.11,145.77c-0.86-1.3-1.46-2.1-1.8-2.38
						c-0.94,0.2-1.94,0.44-3,0.73c-0.01,0.01-0.02,0.02-0.05,0.02c-0.05,0.01-0.1,0.01-0.16,0.02c0.01,1.94,0.02,3.3,0.04,4.1
						l0,0.02c0,0.27,0,0.46,0.02,0.59l0,0.02c0.12,1.98,0.45,3.37,1,4.18l0,0.02c1.1,1.64,2.28,2.41,3.53,2.33c0.01,0,0.02,0,0.03,0
						c0.29-0.02,0.49-0.23,0.58-0.64c0.12-0.55,0.14-1.5,0.07-2.85C217.27,150.13,217.19,148.09,217.11,145.77 M230.59,156.2
						c0.22-0.18,0.33-0.39,0.33-0.61c-0.02-0.24-0.15-0.51-0.41-0.8l-0.02-0.01c-0.63-0.69-1.68-2.33-3.16-4.9l0.02,0
						c-1.3-2.17-2.35-4.07-3.17-5.71c-1.27-0.41-2.19-0.7-2.75-0.86l0.02,0.01c-1.48-0.37-3.28-0.39-5.39-0.06
						c0.41,0.45,0.96,1.2,1.64,2.23c0.01,0.01,0.02,0.02,0.02,0.03c0.16,0.3,0.35,0.61,0.56,0.92c1.39,2.06,2.62,4.08,3.68,6.06
						c1.58,2.94,3.76,4.38,6.54,4.3c0.93-0.04,1.63-0.25,2.09-0.63L230.59,156.2 M232.94,140c-2.03-0.94-4.58-1.96-7.66-3.05
						c-1.6-0.57-2.99-1.05-4.18-1.45c-0.01,0-0.03,0-0.05-0.01l-0.02-0.01c-1.37-0.35-2.43-0.55-3.17-0.61l0.02,0.01
						c-2.01-0.08-8.53,0.69-19.55,2.3c-0.08,0.01-0.16-0.01-0.23-0.07c-0.07-0.05-0.11-0.12-0.12-0.21
						c-0.01-0.08,0.01-0.16,0.05-0.23c0.06-0.07,0.13-0.11,0.21-0.12c11.09-1.62,17.65-2.39,19.66-2.32
						c0.65,0.06,1.54,0.21,2.66,0.47c-0.51-0.95-1.22-1.91-2.14-2.86c-1.28-1.32-2.47-2.05-3.56-2.2l0.02,0
						c-0.71-0.04-1.71-0.06-2.98-0.05c-3.13,0.02-7.93,0.31-14.38,0.89c-0.08,0.01-0.16-0.01-0.23-0.07
						c-0.06-0.06-0.09-0.13-0.1-0.23c-0.01-0.08,0.01-0.16,0.07-0.23c0.06-0.06,0.13-0.09,0.21-0.1c6.17-0.56,10.82-0.86,13.95-0.89
						l-0.46-1.13l0,0.02c-0.48-1.01-0.95-1.66-1.41-1.96c-0.58-0.35-2.92-0.59-7.04-0.72c-4.24-0.19-8.06-0.18-11.47,0.03l-0.02,0
						c-0.43,0.02-0.87,0.05-1.31,0.1c-0.32,0.1-0.64,0.17-0.98,0.2c-13.99,1.54-26.01,6.7-36.04,15.51
						c3.43-1.14,7.13-0.89,11.09,0.74c1.75,0.73,3.16,1.64,4.21,2.73c0.46,0.48,1.39,1.73,2.81,3.76c0.64,0.91,1.54,1.88,2.69,2.9
						c1.35,1.2,2.7,2.12,4.04,2.77c2.93,1.45,5.41,2.49,7.41,3.13c2.35,0.7,9.94,4.59,22.75,11.68c0.46,0.26,0.84,0.27,1.13,0.05
						c0.33-0.3,0.56-0.9,0.69-1.79l0.02,0c0.33-1.82,0.1-3.21-0.68-4.17l0-0.02c-0.6-0.73-2.53-1.99-5.79-3.8
						c-3.68-2.16-5.58-3.28-5.71-3.36l0-0.02c-2.47-1.84-3.6-3.53-3.4-5.09c0.1-1.32,3.93-2.89,11.5-4.69
						c2.25-0.85,4.31-1.58,6.18-2.19c0.03-0.01,0.06-0.02,0.09-0.03c0.17-0.05,0.32-0.08,0.45-0.1c1.1-0.31,2.14-0.57,3.11-0.77
						l0.02,0c0.01,0,0.02,0,0.03,0c2.48-0.44,4.57-0.45,6.26-0.03c0.57,0.16,1.52,0.46,2.85,0.9c0.03,0.01,0.06,0.01,0.08,0.02
						c1.5,0.56,3.44,1.27,5.83,2.16c3.41,1.28,6.02,1.97,7.81,2.07c1.85,0.05,3.25-0.41,4.2-1.38c0.5-0.58,0.82-1.21,0.97-1.87
						c-0.09-0.21-1.36-0.84-3.83-1.87c-3.9-1.53-6.08-2.44-6.56-2.71L232.94,140z"/>
				</g>
			</g>
		</g>
		<g transform="matrix( 1, 0, 0, 1, 0,0) ">
			<g>
				<g id="Layer0_3_FILL">
					<path class="st3" d="M242.05,213.32c-0.3,0.16-0.61,0.35-0.92,0.56c-2.06,1.39-4.08,2.62-6.06,3.68
						c-2.94,1.58-4.38,3.76-4.3,6.54c0.04,0.93,0.25,1.63,0.63,2.09l0-0.02c0.18,0.22,0.39,0.33,0.61,0.33
						c0.24-0.02,0.51-0.15,0.8-0.41l0.01-0.02c0.69-0.63,2.33-1.68,4.9-3.16l0,0.02c2.17-1.3,4.07-2.35,5.71-3.17
						c0.41-1.27,0.7-2.19,0.86-2.75l-0.01,0.02c0.37-1.48,0.39-3.28,0.06-5.39c-0.45,0.41-1.2,0.96-2.24,1.64
						C242.07,213.31,242.06,213.32,242.05,213.32 M243.46,207.91c-0.01-0.01-0.02-0.02-0.02-0.05c-0.01-0.05-0.01-0.1-0.02-0.16
						c-1.94,0.01-3.3,0.02-4.1,0.04l-0.02,0c-0.27,0-0.46,0-0.59,0.02l-0.02,0c-1.98,0.12-3.37,0.45-4.18,1l-0.02,0
						c-1.64,1.1-2.41,2.28-2.33,3.53c0,0.01,0,0.02,0,0.03c0.02,0.29,0.23,0.49,0.64,0.58c0.55,0.12,1.5,0.14,2.85,0.07
						c1.78-0.1,3.82-0.19,6.14-0.26c1.3-0.86,2.1-1.46,2.38-1.8C243.98,209.97,243.74,208.97,243.46,207.91 M235.6,201.93
						c0.21,0.6,0.57,1.13,1.08,1.58c0.44,0.39,1.05,1.15,1.82,2.28l-0.02,0l0.99,1.31c0.77-0.01,2.02-0.02,3.75-0.03
						c-0.57-1.76-1.26-3.68-2.04-5.75c-0.56-0.56-1.42-0.85-2.59-0.86c-1.08-0.02-1.99,0.12-2.73,0.43l-0.02,0
						c-0.33,0.15-0.41,0.5-0.24,1.03L235.6,201.93 M239.34,166.42c-0.91,0.64-1.88,1.54-2.9,2.69c-1.2,1.35-2.12,2.7-2.77,4.04
						c-1.45,2.93-2.49,5.41-3.13,7.41c-0.7,2.35-4.59,9.94-11.68,22.75c-0.26,0.46-0.27,0.84-0.05,1.13c0.3,0.33,0.9,0.56,1.79,0.69
						l0,0.02c1.82,0.33,3.21,0.1,4.17-0.68l0.02,0c0.73-0.6,1.99-2.53,3.8-5.79c2.16-3.68,3.28-5.58,3.36-5.71l0.02,0
						c1.84-2.47,3.53-3.6,5.09-3.4c1.32,0.1,2.89,3.93,4.69,11.5c0.85,2.25,1.58,4.31,2.19,6.18c0.01,0.03,0.02,0.06,0.03,0.09
						c0.05,0.17,0.08,0.32,0.1,0.45c0.31,1.1,0.57,2.14,0.77,3.11l0,0.02c0,0.01,0,0.02,0,0.03c0.44,2.48,0.45,4.57,0.03,6.26
						c-0.16,0.57-0.46,1.52-0.9,2.85c-0.01,0.03-0.01,0.06-0.02,0.08c-0.56,1.5-1.27,3.44-2.16,5.83c-1.28,3.41-1.97,6.02-2.07,7.81
						l0-0.02c-0.05,1.86,0.41,3.27,1.38,4.22c0.58,0.5,1.21,0.82,1.87,0.97c0.21-0.09,0.84-1.36,1.87-3.83
						c1.53-3.9,2.44-6.08,2.71-6.56l0.01-0.02c0.94-2.03,1.96-4.58,3.05-7.66c0.57-1.6,1.05-2.99,1.45-4.18c0-0.01,0-0.03,0.01-0.05
						l0.01-0.02c0.35-1.37,0.55-2.43,0.61-3.17l-0.01,0.02c0.08-2.01-0.69-8.53-2.3-19.55c-0.01-0.08,0.01-0.16,0.07-0.23
						c0.05-0.07,0.12-0.11,0.21-0.12c0.08-0.01,0.16,0.01,0.23,0.05c0.07,0.06,0.11,0.13,0.12,0.21
						c1.62,11.09,2.39,17.65,2.32,19.66c-0.06,0.65-0.21,1.54-0.47,2.66c0.95-0.51,1.91-1.22,2.86-2.14
						c1.32-1.28,2.05-2.47,2.2-3.56l0,0.02c0.04-0.71,0.06-1.71,0.05-2.98c-0.02-3.13-0.31-7.93-0.89-14.38
						c-0.01-0.08,0.01-0.16,0.07-0.23c0.06-0.06,0.13-0.09,0.23-0.1c0.08-0.01,0.16,0.01,0.23,0.07c0.06,0.06,0.09,0.13,0.1,0.21
						c0.56,6.17,0.86,10.82,0.89,13.95l1.13-0.46l-0.02,0c1.01-0.48,1.66-0.95,1.96-1.41c0.35-0.58,0.59-2.92,0.72-7.04
						c0.19-4.24,0.18-8.06-0.03-11.47l0-0.02c-0.02-0.43-0.05-0.87-0.1-1.31c-0.1-0.32-0.17-0.64-0.2-0.98
						c-1.54-13.99-6.7-26.01-15.51-36.04c1.14,3.43,0.89,7.13-0.74,11.09c-0.73,1.75-1.64,3.16-2.73,4.21
						C242.62,164.07,241.36,165.01,239.34,166.42z"/>
				</g>
			</g>
		</g>
	</g>
	<g>
		<path d="M293.12,179.46c1.91,0,3.83,0,5.78,0c0,2.8,0,5.6-0.01,8.41c0,0.24,0.07,0.29,0.3,0.29c5.62-0.01,11.25,0,16.87,0
			c0-2.91,0-5.79,0-8.68c1.94,0,3.85,0,5.77,0c0,7.91,0,15.82,0,23.73c-1.92,0-3.83,0-5.77,0c0-3.39,0-6.78,0-10.18
			c-5.73,0-11.43,0-17.16,0c0,3.39,0,6.78,0,10.19c-1.95,0-3.87,0-5.79,0C293.12,195.3,293.12,187.38,293.12,179.46z"/>
		<path d="M358.78,179.47c2.17,0,4.33,0,6.5,0c0.17,0,0.29,0.04,0.41,0.18c3.42,4.14,6.83,8.26,10.26,12.4
			c3.49-4.1,6.87-8.31,10.34-12.43c0.06-0.07,0.18-0.14,0.27-0.14c2.2,0.01,4.4-0.03,6.6,0.01c0,7.91,0,15.82,0,23.73
			c-1.92,0-3.83,0-5.77,0c0-5.62,0-11.23,0-16.84c-0.02-0.01-0.05-0.02-0.07-0.03c-3.77,4.54-7.55,9.08-11.34,13.64
			c-3.79-4.56-7.57-9.1-11.34-13.64c-0.02,0.01-0.04,0.02-0.06,0.03c0,5.61,0,11.22,0,16.85c-1.94,0-3.85,0-5.78,0
			C358.78,195.31,358.78,187.41,358.78,179.47z"/>
		<path d="M494.26,182.81c-1.04,1.21-2.08,2.41-3.09,3.59c-3.99-2.1-8.52-2.91-13-2.34c-1.31,0.16-2.77,0.38-3.75,1.34
			c-1.14,1.28,0.57,2.42,1.79,2.52c5.4,1.17,17.44-0.82,18.79,6.35c1.06,8.13-9.28,9.32-15.25,8.85c-4.46-0.23-8.9-1.58-12.54-4.19
			c0.99-1.22,1.99-2.44,2.98-3.67c5.01,3.05,11.45,4.64,17.12,2.64c1.52-0.52,2.9-2.58,1.1-3.65c-0.54-0.29-1.14-0.45-1.74-0.5
			c-1.48-0.13-2.96-0.24-4.44-0.32c-4.96-0.39-14.2-0.2-13.84-7.2C469.47,176.89,488.71,178.67,494.26,182.81z"/>
		<path d="M433.69,179.45c2.16,0,4.32,0,6.48,0c0.17,0,0.29,0.05,0.42,0.18c5.37,5.61,10.63,11.34,16.06,16.88
			c0-5.73,0-11.37,0-17.04c1.93,0,3.84,0,5.77,0c0,7.9,0,15.81,0,23.73c-2.18,0.03-4.35,0-6.53,0.01c-0.16,0-0.26-0.05-0.37-0.16
			c-5.35-5.62-10.66-11.28-16.04-16.87c0,5.71,0,11.35,0,17.01c-1.94,0-3.85,0-5.78,0C433.69,195.3,433.69,187.39,433.69,179.45z"/>
		<path d="M348.91,179.46c1.94,0,3.84,0,5.78,0c0,5.19-0.01,9.7,0,14.9c0.01,2.29-0.95,4.09-2.66,5.53
			c-3.52,2.86-8.28,3.4-12.66,3.31c-5.42-0.1-13.28-2.17-13.43-8.75c0-5.22,0-9.76,0-14.98c1.93,0,3.84,0,5.78,0
			c0,4.83,0.04,8.98-0.02,13.81c-0.03,4.98,6.14,5.52,9.91,5.31c2.66-0.2,6.13-0.87,7.12-3.72
			C349.2,189.55,348.77,184.81,348.91,179.46z"/>
		<path d="M429.6,203.21c-1.91,0.01-3.74-0.01-5.61,0c-0.17,0-0.25-0.05-0.33-0.2c-0.83-1.57-1.67-3.13-2.49-4.71
			c-0.09-0.17-0.18-0.22-0.37-0.22c-4.91,0.01-9.82,0.01-14.74,0c-0.19,0-0.28,0.06-0.37,0.22c-0.83,1.58-1.67,3.15-2.51,4.73
			c-0.06,0.11-0.12,0.18-0.27,0.18c-1.89-0.01-3.77,0.01-5.66-0.01c4.35-7.81,8.22-16.28,12.85-23.75c2.23,0,4.46,0.01,6.68,0
			c0.17,0,0.25,0.06,0.33,0.21C421.27,187.51,425.45,195.35,429.6,203.21z M413.39,183.78c-1.75,3.27-3.47,6.49-5.21,9.73
			c3.5,0,6.94,0,10.42,0C416.86,190.27,415.14,187.05,413.39,183.78z"/>
		<path d="M527.24,184.45c5.22,0,10.45,0,15.67,0c1.41,0,2.78,0.21,4.06,0.82c5.15,2.17,4.51,10.27-1.01,11.47
			c-4.36,0.89-8.91,0.21-13.35,0.41c0,2.03,0,4.03,0,6.06c-1.8,0-3.58,0-5.37,0C527.24,196.97,527.24,190.73,527.24,184.45z
			 M532.62,192.89c3.4,0.03,6.79,0,10.19,0c1.35,0.03,2.63-1.14,2.34-2.54c-0.11-0.77-0.61-1.24-1.32-1.44
			c-3.69-0.52-7.49-0.08-11.21-0.21C532.62,190.11,532.62,191.49,532.62,192.89z"/>
		<path d="M499.9,184.45c1.79,0,3.57,0,5.37,0c0,3.83,0.02,7.08-0.01,10.91c0.06,3.73,5.04,3.69,7.76,3.56
			c2.06-0.15,5.08-0.84,5.05-3.42c-0.01-3.88,0-7.17,0-11.05c1.8,0,3.57,0,5.37,0c0.03,4.08,0,7.58,0.01,11.65
			c0,2.02-0.93,3.54-2.51,4.71c-3.31,2.33-7.59,2.58-11.5,2.3c-4-0.3-9.49-2.16-9.54-6.94C499.9,192.08,499.87,188.56,499.9,184.45z
			"/>
		<path d="M466.79,175.27c-3.52,0.02-3.52,5.37,0,5.38v1.16C469.87,180.93,470.74,175.46,466.79,175.27z"/>
	</g>
	<g>
		<path d="M294.34,221.63c0.73,0.43,1.86,0.8,3.04,0.8c1.45,0,2.27-0.69,2.27-1.71c0-0.95-0.63-1.51-2.22-2.09
			c-2.09-0.74-3.41-1.84-3.41-3.65c0-2.07,1.71-3.61,4.45-3.61c1.36,0,2.35,0.3,3,0.63l-0.54,1.84c-0.47-0.24-1.34-0.6-2.51-0.6
			c-1.45,0-2.07,0.76-2.07,1.51c0,0.97,0.73,1.42,2.4,2.07c2.18,0.82,3.22,1.92,3.22,3.73c0,2.03-1.53,3.78-4.75,3.78
			c-1.34,0-2.72-0.37-3.41-0.8L294.34,221.63z"/>
		<path d="M310.74,223.85c-0.48,0.22-1.43,0.47-2.57,0.47c-2.83,0-4.68-1.83-4.68-4.64c0-2.72,1.86-4.83,5.05-4.83
			c0.84,0,1.7,0.19,2.22,0.41l-0.41,1.73c-0.37-0.19-0.91-0.35-1.73-0.35c-1.75,0-2.79,1.29-2.78,2.94c0,1.86,1.21,2.93,2.78,2.93
			c0.78,0,1.36-0.17,1.81-0.35L310.74,223.85z"/>
		<path d="M312.43,210.9h2.29v5.38h0.04c0.28-0.43,0.67-0.78,1.14-1.02c0.47-0.26,1.01-0.41,1.58-0.41c1.55,0,3.17,1.02,3.17,3.93
			v5.35h-2.29v-5.1c0-1.3-0.48-2.31-1.75-2.31c-0.89,0-1.53,0.6-1.79,1.29c-0.07,0.21-0.09,0.45-0.09,0.69v5.44h-2.29V210.9z"/>
		<path d="M331.71,219.51c0,3.34-2.35,4.83-4.66,4.83c-2.55,0-4.55-1.75-4.55-4.68c0-2.98,1.96-4.81,4.69-4.81
			C329.91,214.85,331.71,216.75,331.71,219.51z M324.88,219.6c0,1.75,0.88,3.07,2.25,3.07c1.3,0,2.22-1.27,2.22-3.11
			c0-1.42-0.63-3.06-2.2-3.06C325.53,216.51,324.88,218.09,324.88,219.6z"/>
		<path d="M342.22,219.51c0,3.34-2.35,4.83-4.66,4.83c-2.55,0-4.55-1.75-4.55-4.68c0-2.98,1.96-4.81,4.69-4.81
			C340.41,214.85,342.22,216.75,342.22,219.51z M335.38,219.6c0,1.75,0.88,3.07,2.25,3.07c1.3,0,2.22-1.27,2.22-3.11
			c0-1.42-0.63-3.06-2.2-3.06C336.04,216.51,335.38,218.09,335.38,219.6z"/>
		<path d="M344.1,210.9h2.29v13.23h-2.29V210.9z"/>
		<path d="M361.37,219.51c0,3.34-2.35,4.83-4.66,4.83c-2.55,0-4.55-1.75-4.55-4.68c0-2.98,1.96-4.81,4.7-4.81
			C359.56,214.85,361.37,216.75,361.37,219.51z M354.53,219.6c0,1.75,0.88,3.07,2.25,3.07c1.3,0,2.22-1.27,2.22-3.11
			c0-1.42-0.63-3.06-2.2-3.06C355.19,216.51,354.53,218.09,354.53,219.6z"/>
		<path d="M363.51,224.13v-7.36h-1.23v-1.71h1.23v-0.39c0-1.17,0.32-2.35,1.1-3.09c0.67-0.63,1.57-0.88,2.37-0.88
			c0.61,0,1.1,0.11,1.45,0.22l-0.15,1.77c-0.26-0.09-0.56-0.17-0.99-0.17c-1.14,0-1.51,0.95-1.51,2.07v0.47h1.97v1.71h-1.96v7.36
			H363.51z"/>
		<path d="M373.13,224.13v-12.56h2.63l3.24,5.38c0.82,1.4,1.57,2.85,2.14,4.21h0.04c-0.17-1.68-0.21-3.3-0.21-5.22v-4.38h2.12v12.56
			h-2.38l-3.28-5.53c-0.8-1.38-1.62-2.91-2.24-4.32l-0.07,0.02c0.09,1.62,0.13,3.28,0.13,5.35v4.49H373.13z"/>
		<path d="M387.27,220.24c0.06,1.64,1.32,2.35,2.79,2.35c1.06,0,1.81-0.17,2.51-0.41l0.34,1.57c-0.78,0.34-1.86,0.58-3.17,0.58
			c-2.94,0-4.68-1.81-4.68-4.58c0-2.51,1.53-4.88,4.43-4.88c2.94,0,3.91,2.42,3.91,4.42c0,0.43-0.04,0.76-0.07,0.97H387.27z
			 M391.25,218.63c0.02-0.84-0.35-2.22-1.88-2.22c-1.42,0-2.01,1.29-2.11,2.22H391.25z"/>
		<path d="M396.64,215.06l1.08,1.71c0.3,0.48,0.56,0.93,0.82,1.4h0.04c0.26-0.5,0.52-0.97,0.8-1.43l1.01-1.68h2.5l-3.04,4.36
			l3.09,4.71h-2.61l-1.1-1.81c-0.3-0.49-0.56-0.97-0.82-1.47h-0.04c-0.26,0.52-0.54,0.97-0.82,1.47l-1.04,1.81h-2.53l3.15-4.62
			l-3.04-4.45H396.64z"/>
		<path d="M412.44,221.41c0,1.08,0.04,1.97,0.07,2.72h-1.99l-0.11-1.36h-0.06c-0.39,0.63-1.29,1.57-2.92,1.57
			c-1.64,0-3.15-0.99-3.15-3.95v-5.33h2.29v4.94c0,1.51,0.48,2.48,1.7,2.48c0.93,0,1.53-0.63,1.75-1.23
			c0.09-0.19,0.13-0.45,0.13-0.71v-5.48h2.29V221.41z"/>
		<path d="M414.82,222.01c0.5,0.32,1.49,0.67,2.31,0.67c1.01,0,1.45-0.43,1.45-1.02c0-0.62-0.37-0.91-1.49-1.32
			c-1.77-0.6-2.5-1.57-2.5-2.65c0-1.6,1.32-2.83,3.43-2.83c1.01,0,1.88,0.24,2.42,0.54l-0.47,1.6c-0.37-0.22-1.12-0.52-1.92-0.52
			c-0.82,0-1.27,0.41-1.27,0.97c0,0.58,0.43,0.84,1.58,1.27c1.66,0.58,2.4,1.42,2.42,2.76c0,1.66-1.29,2.85-3.69,2.85
			c-1.1,0-2.09-0.26-2.76-0.63L414.82,222.01z"/>
		<path d="M426.59,221.63c0.73,0.43,1.86,0.8,3.04,0.8c1.45,0,2.27-0.69,2.27-1.71c0-0.95-0.63-1.51-2.22-2.09
			c-2.09-0.74-3.41-1.84-3.41-3.65c0-2.07,1.71-3.61,4.45-3.61c1.36,0,2.35,0.3,3,0.63l-0.54,1.84c-0.47-0.24-1.34-0.6-2.51-0.6
			c-1.45,0-2.07,0.76-2.07,1.51c0,0.97,0.73,1.42,2.4,2.07c2.18,0.82,3.22,1.92,3.22,3.73c0,2.03-1.53,3.78-4.75,3.78
			c-1.34,0-2.72-0.37-3.41-0.8L426.59,221.63z"/>
		<path d="M442.99,223.85c-0.49,0.22-1.43,0.47-2.57,0.47c-2.83,0-4.68-1.83-4.68-4.64c0-2.72,1.86-4.83,5.05-4.83
			c0.84,0,1.7,0.19,2.22,0.41L442.6,217c-0.37-0.19-0.91-0.35-1.73-0.35c-1.75,0-2.79,1.29-2.78,2.94c0,1.86,1.21,2.93,2.78,2.93
			c0.78,0,1.36-0.17,1.81-0.35L442.99,223.85z"/>
		<path d="M447.12,212.52c0,0.67-0.5,1.23-1.3,1.23c-0.76,0-1.27-0.56-1.27-1.23c0-0.71,0.52-1.25,1.29-1.25
			C446.62,211.28,447.11,211.82,447.12,212.52z M444.68,224.13v-9.07h2.29v9.07H444.68z"/>
		<path d="M451.07,220.24c0.06,1.64,1.32,2.35,2.79,2.35c1.06,0,1.81-0.17,2.51-0.41l0.34,1.57c-0.78,0.34-1.86,0.58-3.17,0.58
			c-2.94,0-4.68-1.81-4.68-4.58c0-2.51,1.53-4.88,4.43-4.88c2.94,0,3.91,2.42,3.91,4.42c0,0.43-0.04,0.76-0.07,0.97H451.07z
			 M455.06,218.63c0.02-0.84-0.35-2.22-1.88-2.22c-1.42,0-2.01,1.29-2.11,2.22H455.06z"/>
		<path d="M459.07,217.76c0-1.04-0.04-1.92-0.07-2.7h1.99l0.11,1.36h0.06c0.41-0.71,1.4-1.57,2.91-1.57c1.58,0,3.22,1.02,3.22,3.89
			v5.38h-2.29v-5.12c0-1.3-0.48-2.29-1.73-2.29c-0.91,0-1.55,0.65-1.79,1.34c-0.07,0.19-0.11,0.47-0.11,0.73v5.35h-2.29V217.76z"/>
		<path d="M476.39,223.85c-0.49,0.22-1.43,0.47-2.57,0.47c-2.83,0-4.68-1.83-4.68-4.64c0-2.72,1.86-4.83,5.05-4.83
			c0.84,0,1.7,0.19,2.22,0.41L476,217c-0.37-0.19-0.91-0.35-1.73-0.35c-1.75,0-2.79,1.29-2.78,2.94c0,1.86,1.21,2.93,2.78,2.93
			c0.78,0,1.36-0.17,1.81-0.35L476.39,223.85z"/>
		<path d="M479.54,220.24c0.06,1.64,1.32,2.35,2.79,2.35c1.06,0,1.81-0.17,2.51-0.41l0.34,1.57c-0.78,0.34-1.86,0.58-3.17,0.58
			c-2.94,0-4.68-1.81-4.68-4.58c0-2.51,1.53-4.88,4.43-4.88c2.94,0,3.91,2.42,3.91,4.42c0,0.43-0.04,0.76-0.07,0.97H479.54z
			 M483.53,218.63c0.02-0.84-0.35-2.22-1.88-2.22c-1.42,0-2.01,1.29-2.11,2.22H483.53z"/>
	</g>
</g>
</svg>
