<?xml version="1.0" standalone="no"?>
<!DOCTYPE svg PUBLIC "-//W3C//DTD SVG 20010904//EN"
 "http://www.w3.org/TR/2001/REC-SVG-20010904/DTD/svg10.dtd">
<svg version="1.0" xmlns="http://www.w3.org/2000/svg"
 width="200.000000pt" height="200.000000pt" viewBox="0 0 200.000000 200.000000"
 preserveAspectRatio="xMidYMid meet">
<metadata>
Created by potrace 1.14, written by Peter Selinger 2001-2017
</metadata>
<g transform="translate(0.000000,200.000000) scale(0.100000,-0.100000)"
fill="#000000" stroke="none">
<path d="M843 1760 c-96 -25 -205 -77 -279 -133 -62 -47 -144 -130 -143 -144
0 -5 23 -25 50 -46 l50 -38 65 65 c45 44 92 78 148 106 100 50 165 68 280 77
l89 6 -6 -54 c-4 -30 -7 -66 -7 -81 0 -25 -3 -26 -52 -27 -29 -1 -64 -3 -78
-5 -14 -2 -34 -4 -45 -6 -11 -1 -15 -4 -9 -6 7 -3 10 -13 8 -22 -3 -9 1 -35 9
-57 l14 -40 70 3 c38 2 88 -1 112 -8 24 -6 45 -9 47 -7 3 2 13 28 23 58 13 36
25 55 38 57 10 2 45 -15 78 -36 183 -118 271 -335 219 -537 -25 -98 -26 -95
43 -126 l62 -27 22 61 c15 45 23 94 26 177 6 126 -6 193 -53 298 -14 31 -21
58 -17 59 4 2 32 17 61 33 48 28 51 32 41 53 -79 148 -288 298 -483 347 -106
27 -281 27 -383 0z"/>
<path d="M689 1103 c-7 -21 -10 -70 -7 -122 6 -104 30 -161 98 -231 158 -162
449 -127 563 69 l18 31 -63 29 c-56 26 -64 27 -73 13 -19 -31 -70 -75 -102
-88 -43 -19 -125 -18 -171 1 -79 34 -126 107 -125 195 0 30 2 61 4 68 3 8 -22
24 -63 42 l-67 29 -12 -36z"/>
<path d="M393 1072 c-3 -13 -3 -62 0 -107 l5 -84 -50 -10 c-27 -6 -58 -11 -68
-11 -27 0 -25 -19 9 -117 30 -87 85 -183 149 -260 40 -49 167 -153 186 -153 6
0 26 27 45 59 l34 59 61 -29 c79 -36 203 -69 263 -69 110 0 281 46 334 89 l22
17 -38 58 c-21 31 -43 55 -49 52 -116 -52 -145 -60 -238 -64 -165 -7 -271 38
-387 165 -85 92 -123 185 -129 314 l-4 96 -69 10 c-69 9 -70 9 -76 -15z"/>
<path d="M1616 702 c-3 -10 -7 -21 -8 -27 -1 -5 -8 -16 -15 -23 -7 -8 -11 -18
-7 -23 3 -5 0 -8 -8 -7 -8 2 -13 -6 -12 -19 0 -12 -4 -20 -8 -17 -10 6 -48
-24 -48 -38 0 -4 11 -21 25 -36 14 -16 32 -37 39 -48 14 -18 15 -18 35 0 12
11 21 25 21 32 0 7 5 16 12 20 7 4 8 3 4 -4 -4 -7 -5 -12 -2 -12 10 0 86 123
80 131 -3 5 0 9 5 9 6 0 11 6 11 13 0 8 -27 25 -60 39 -53 23 -60 24 -64 10z
m54 -158 c0 -8 -19 -13 -24 -6 -3 5 1 9 9 9 8 0 15 -2 15 -3z"/>
</g>
</svg>
