<?xml version="1.0" standalone="no"?>
<!DOCTYPE svg PUBLIC "-//W3C//DTD SVG 20010904//EN"
 "http://www.w3.org/TR/2001/REC-SVG-20010904/DTD/svg10.dtd">
<svg version="1.0" xmlns="http://www.w3.org/2000/svg"
 width="500.000000pt" height="500.000000pt" viewBox="0 0 500.000000 500.000000"
 preserveAspectRatio="xMidYMid meet">
<metadata>
Created by potrace 1.14, written by Peter Selinger 2001-2017
</metadata>
<g transform="translate(0.000000,500.000000) scale(0.100000,-0.100000)"
fill="#000000" stroke="none">
<path d="M2375 3681 c-3 -3 -13 -6 -23 -8 -33 -5 -127 -16 -149 -17 -11 0 -19
-4 -16 -8 2 -5 -10 -8 -26 -8 -17 0 -31 -5 -31 -11 0 -5 -4 -8 -9 -5 -5 3 -24
1 -42 -5 -19 -6 -41 -13 -49 -16 -8 -2 -17 -4 -20 -5 -3 0 -14 -5 -25 -11 -11
-6 -22 -12 -25 -12 -3 -1 -18 -8 -35 -15 -16 -7 -32 -14 -35 -15 -3 0 -19 -8
-36 -18 -17 -9 -34 -14 -38 -12 -3 3 -4 2 -1 -1 2 -4 -12 -16 -33 -27 -20 -11
-40 -24 -43 -29 -3 -5 -10 -9 -14 -8 -4 1 -18 -7 -31 -19 -13 -12 -29 -21 -34
-21 -6 0 -10 -4 -10 -8 0 -4 -13 -16 -30 -25 -16 -10 -30 -25 -30 -34 0 -11 4
-13 13 -6 6 5 19 9 27 8 8 0 18 4 22 10 5 6 8 6 8 0 0 -6 19 -10 43 -10 23 0
49 -3 57 -7 8 -3 37 -16 64 -28 52 -23 83 -50 130 -115 36 -49 131 -140 149
-141 26 -2 75 -29 70 -38 -3 -6 -3 -8 2 -4 4 4 29 -1 56 -11 26 -10 50 -16 53
-13 4 3 6 0 6 -6 0 -7 9 -12 19 -12 11 0 27 -8 37 -17 10 -10 18 -17 18 -15 1
2 12 -1 26 -6 14 -5 28 -9 31 -8 4 0 15 -6 25 -15 11 -9 34 -21 52 -29 17 -7
32 -16 32 -20 0 -3 6 -7 13 -7 6 0 31 -12 54 -26 24 -15 47 -27 52 -27 5 0 14
-6 21 -14 6 -8 18 -12 26 -9 8 3 14 1 14 -5 0 -5 17 -18 38 -28 45 -22 62 -25
63 -13 2 13 6 29 9 32 8 10 9 67 1 67 -6 0 -10 4 -8 8 2 8 -47 62 -57 62 -10
0 -131 74 -134 81 -2 4 -9 6 -16 3 -8 -3 -16 2 -20 11 -3 9 -10 13 -16 10 -6
-3 -13 1 -16 9 -3 9 -10 13 -15 10 -5 -3 -9 1 -9 9 0 8 -9 21 -21 29 -32 21
-33 73 -2 93 13 9 32 18 41 20 9 2 35 10 57 19 22 8 51 18 65 20 27 5 74 19
103 31 9 4 17 3 17 -3 0 -6 -13 -13 -29 -17 -16 -3 -31 -14 -34 -23 -3 -9 -8
-26 -13 -36 -5 -14 -4 -17 5 -11 10 6 11 3 1 -15 -8 -15 -8 -20 -1 -16 6 4 11
1 11 -7 0 -8 8 -21 17 -28 9 -8 14 -9 11 -4 -4 6 9 21 28 34 19 13 34 28 34
33 0 5 5 6 10 3 6 -3 10 -1 10 5 0 6 4 9 9 6 12 -8 17 11 16 54 0 27 -5 35
-18 34 -9 -1 -17 2 -17 7 0 9 10 12 43 12 9 0 17 4 17 8 0 5 5 9 10 9 18 0 11
-18 -10 -25 -20 -6 -23 -24 -5 -37 6 -5 5 -8 -3 -8 -8 0 -10 -5 -6 -12 12 -20
12 -48 0 -41 -8 5 -8 3 0 -8 5 -8 10 -21 9 -29 -4 -42 52 -110 89 -110 21 0
22 4 21 105 0 58 -4 105 -8 105 -5 0 -5 5 -2 10 3 6 1 10 -4 10 -6 0 -11 5
-11 10 0 21 18 9 30 -20 7 -16 16 -30 20 -30 4 0 13 -13 20 -30 7 -16 16 -30
21 -30 5 0 9 -9 9 -20 0 -11 4 -20 9 -20 5 0 12 -9 16 -19 8 -28 61 -82 82
-86 10 -2 18 -4 18 -5 0 -9 64 -8 82 1 23 12 21 29 -9 61 -14 15 -34 47 -55
90 -8 15 -19 30 -24 33 -5 4 -7 11 -4 16 4 5 2 9 -2 9 -5 0 -14 9 -21 21 -11
17 -11 20 0 14 7 -3 4 1 -6 9 -11 9 -26 16 -33 16 -7 0 -13 5 -13 10 0 15
-123 12 -139 -2 -10 -10 -15 -10 -18 -1 -2 7 -12 9 -21 6 -15 -4 -15 -3 -2 6
8 6 32 11 53 11 28 0 36 3 31 13 -6 9 -4 9 7 1 8 -6 28 -11 44 -12 39 -1 75
-12 75 -24 0 -5 6 -8 13 -7 22 4 67 -13 67 -25 0 -6 5 -4 10 4 7 11 10 11 10
2 0 -7 4 -11 9 -8 5 4 11 2 13 -3 1 -6 14 -12 28 -14 14 -3 37 -10 51 -15 15
-6 30 -8 33 -5 3 4 6 2 6 -4 0 -5 6 -10 13 -11 30 -3 93 -2 107 0 18 4 54 29
63 44 7 12 -25 56 -40 55 -16 -2 -103 33 -103 42 0 4 -4 6 -10 2 -5 -3 -31 5
-58 19 -27 14 -52 22 -56 19 -3 -4 -6 -1 -6 5 0 7 -9 12 -19 12 -11 0 -23 5
-26 10 -4 6 -10 8 -15 5 -5 -3 -11 -1 -15 5 -4 6 -11 8 -16 5 -5 -4 -9 -1 -9
4 0 6 -11 11 -25 11 -14 0 -25 4 -25 8 0 4 -12 9 -26 10 -15 1 -33 7 -40 13
-7 6 -18 8 -23 5 -5 -4 -12 -3 -15 2 -3 5 -19 7 -36 4 -16 -2 -30 0 -30 5 0
11 50 11 68 0 23 -15 13 33 -12 56 -54 49 -62 53 -116 54 -30 1 -57 2 -59 2
-2 1 2 8 9 16 9 10 9 15 1 15 -6 0 -11 5 -11 11 0 14 -20 33 -45 44 -21 9
-422 15 -430 6z m300 -91 c-3 -5 -1 -10 4 -10 6 0 11 3 11 8 0 4 34 8 76 10
41 1 73 -2 70 -6 -3 -5 -18 -8 -33 -7 -15 1 -35 -2 -44 -6 -9 -5 -20 -4 -26 2
-8 8 -17 7 -32 -1 -23 -12 -45 -5 -36 11 4 5 8 9 11 9 3 0 2 -4 -1 -10z m-65
-12 c0 -4 -15 -8 -32 -7 -26 0 -29 2 -13 8 25 10 45 10 45 -1z m40 0 c0 -4 -7
-8 -15 -8 -8 0 -15 4 -15 8 0 5 7 9 15 9 8 0 15 -4 15 -9z m283 -99 c10 8 17
9 22 1 3 -5 -2 -11 -12 -12 -17 -1 -32 -4 -43 -7 -19 -7 -90 -6 -90 1 0 8 15
10 68 11 12 1 22 6 22 11 0 6 4 5 9 -3 8 -12 12 -12 24 -2z m-134 -23 c-2 -3
-22 -7 -44 -9 -22 -3 -44 -7 -50 -9 -5 -1 -11 1 -13 6 -1 5 19 11 45 13 25 2
49 5 51 8 3 3 8 3 10 0 3 -3 3 -7 1 -9z m-129 -18 c0 -4 -24 -7 -52 -7 -49 2
-50 2 -18 9 45 8 70 8 70 -2z m150 -188 c0 -5 -2 -10 -4 -10 -3 0 -8 5 -11 10
-3 6 -1 10 4 10 6 0 11 -4 11 -10z"/>
<path d="M1480 3241 c-6 -12 -7 -21 -3 -21 4 0 3 -4 -3 -8 -5 -4 -21 -36 -34
-72 -13 -36 -28 -68 -33 -71 -5 -3 -8 -8 -7 -10 2 -5 -8 -33 -35 -94 -12 -27
-28 -71 -35 -97 -8 -27 -19 -48 -24 -48 -5 0 -6 -3 -3 -7 4 -3 1 -13 -6 -21
-10 -13 -9 -14 3 -7 12 6 13 5 3 -6 -7 -7 -13 -21 -13 -31 0 -10 -5 -18 -11
-18 -5 0 -7 5 -4 10 3 6 0 10 -7 10 -18 0 -88 -69 -88 -86 0 -8 -4 -14 -8 -14
-5 0 -8 -47 -7 -104 0 -58 -3 -102 -7 -100 -5 3 -8 11 -7 17 1 7 1 31 0 55
l-1 43 -30 -16 c-34 -18 -50 -49 -46 -89 2 -14 0 -26 -3 -26 -9 0 -7 -353 2
-368 5 -7 8 -22 7 -35 -1 -12 -1 -24 0 -27 3 -9 10 -45 13 -73 2 -15 7 -30 10
-34 4 -3 7 -18 7 -32 0 -15 7 -37 16 -49 11 -16 12 -22 3 -22 -10 0 -10 -3 -1
-12 7 -7 12 -18 12 -24 0 -7 5 -25 12 -41 6 -15 11 -31 10 -35 -1 -5 2 -8 6
-8 5 0 9 -6 9 -13 0 -17 55 -131 66 -135 4 -2 5 -8 1 -13 -3 -5 0 -9 5 -9 6 0
11 -7 11 -15 0 -8 5 -15 11 -15 6 0 9 -6 6 -13 -3 -8 3 -20 14 -28 10 -7 19
-19 19 -25 0 -7 3 -14 8 -16 4 -1 27 -29 51 -60 24 -32 45 -58 46 -58 2 0 2 8
0 18 -2 9 -4 17 -5 17 -2 0 -4 23 -5 50 -4 83 38 201 86 245 30 28 74 59 79
57 3 -1 23 18 45 43 22 25 47 52 55 60 8 8 16 22 18 30 2 8 7 17 11 20 10 6
26 51 23 63 -1 4 3 7 8 7 6 0 10 5 10 11 0 5 9 31 21 56 11 25 22 55 25 66 2
11 8 25 14 31 5 5 10 18 10 28 0 10 3 18 8 18 4 0 18 25 32 55 14 30 29 55 34
55 5 0 7 3 4 6 -4 3 9 33 28 66 19 33 34 64 34 68 0 5 3 10 8 12 11 5 72 125
72 142 0 14 -17 22 -60 27 -23 3 -70 -12 -70 -23 0 -5 -4 -7 -9 -3 -5 3 -12
-4 -16 -15 -3 -11 -10 -20 -15 -20 -5 0 -6 -7 -3 -17 4 -11 3 -14 -5 -9 -7 4
-12 1 -12 -8 0 -9 -5 -16 -12 -16 -6 0 -8 -3 -5 -6 4 -4 -2 -19 -12 -33 -10
-14 -28 -45 -39 -67 -29 -58 -95 -122 -129 -126 -24 -3 -31 3 -49 37 -26 49
-56 144 -48 156 3 5 0 9 -5 9 -6 0 -11 9 -11 19 0 11 -4 30 -9 43 -5 13 -9 26
-10 31 0 4 -8 21 -16 37 -9 17 -13 30 -9 30 4 0 1 7 -6 15 -7 9 -10 18 -7 22
4 3 2 12 -4 20 -19 22 -21 183 -4 217 8 15 13 32 10 36 -3 5 -1 11 5 15 6 4 8
11 5 16 -4 5 0 12 9 15 8 3 13 14 11 25 -2 10 1 19 7 19 6 0 8 3 5 6 -3 4 -2
15 4 26 6 11 12 27 15 36 2 9 11 42 19 72 8 30 15 64 15 77 0 25 -30 93 -41
93 -4 0 -14 3 -22 6 -10 3 -20 -3 -27 -15z m-200 -536 c-7 -8 -8 -15 -3 -15 5
0 10 -7 10 -15 0 -21 -14 -19 -19 3 -6 22 1 42 14 42 6 0 6 -6 -2 -15z m8 -96
c1 -22 4 -55 8 -72 3 -18 3 -28 -2 -24 -5 5 -10 13 -10 18 -1 5 -2 10 -3 12
-7 8 -7 107 -1 107 4 0 8 -18 8 -41z m19 -138 c1 -14 4 -46 7 -71 3 -33 2 -40
-5 -27 -6 9 -7 27 -4 38 5 16 4 19 -5 14 -8 -5 -11 -4 -7 2 4 6 3 24 -2 40 -6
21 -5 30 3 30 7 0 13 -12 13 -26z m-131 -104 c2 -31 -1 -57 -5 -57 -5 0 -7 14
-6 30 1 17 -1 33 -6 36 -5 3 -5 13 1 24 7 12 6 20 0 23 -6 3 -5 4 1 3 7 -1 13
-26 15 -59z m150 -68 c3 -36 1 -40 -6 -21 -6 13 -8 28 -5 32 3 5 1 11 -5 15
-14 9 -13 28 2 23 6 -2 13 -24 14 -49z m-149 -13 c-3 -8 -1 -16 6 -19 7 -2 5
-6 -4 -9 -11 -4 -15 1 -15 18 0 13 4 24 9 24 5 0 7 -6 4 -14z"/>
<path d="M3650 3127 c7 -46 6 -64 -7 -127 -3 -19 -6 -38 -5 -42 1 -5 -2 -8 -7
-8 -5 0 -12 -13 -16 -30 -4 -16 -11 -30 -16 -30 -5 0 -9 -5 -9 -12 0 -14 -48
-58 -62 -58 -5 0 -6 -4 -3 -10 3 -5 0 -10 -8 -10 -7 0 -22 -8 -33 -18 -10 -9
-34 -29 -52 -45 -19 -15 -31 -27 -28 -27 2 0 -11 -23 -30 -51 -19 -28 -34 -58
-34 -66 0 -8 -5 -11 -12 -7 -6 4 -8 3 -4 -4 3 -6 -3 -27 -14 -46 -11 -20 -19
-38 -19 -41 2 -17 -14 -65 -22 -65 -5 0 -8 -3 -7 -7 3 -14 -44 -113 -54 -113
-5 0 -7 -4 -3 -9 3 -5 -1 -15 -8 -23 -15 -15 -16 -15 -23 -45 -4 -13 -11 -23
-16 -23 -5 0 -7 -4 -4 -9 4 -5 3 -11 -1 -13 -8 -3 -18 -20 -92 -162 -35 -67
-39 -81 -26 -88 27 -16 89 -17 115 -3 14 8 22 14 18 15 -5 0 1 10 12 23 42 46
50 57 44 57 -5 0 34 70 45 80 4 3 15 22 25 43 11 20 23 37 28 37 4 0 8 6 8 13
0 25 78 74 104 64 18 -7 56 -78 56 -106 0 -11 4 -22 9 -25 8 -5 14 -27 24 -87
2 -8 8 -28 14 -45 6 -16 15 -38 19 -49 4 -11 6 -26 5 -34 -1 -7 2 -11 7 -7 5
3 9 0 9 -7 1 -7 6 -34 13 -62 14 -60 19 -195 8 -195 -4 0 -8 -11 -8 -25 0 -26
-14 -33 -26 -13 -4 6 -3 8 4 5 16 -11 29 72 23 153 -1 18 -3 17 -28 -6 -14
-13 -37 -27 -49 -30 -12 -3 -25 -12 -28 -21 -3 -8 -10 -11 -16 -8 -6 3 -13 -1
-16 -9 -3 -9 -10 -13 -15 -10 -5 3 -9 2 -9 -3 0 -4 -13 -14 -28 -21 -16 -6
-38 -21 -49 -31 -12 -11 -24 -17 -27 -14 -3 4 -6 -1 -6 -10 0 -9 -4 -17 -8
-17 -5 0 -9 -6 -10 -12 -2 -23 -7 -43 -15 -55 -5 -7 -4 -13 1 -13 6 0 8 -8 5
-19 -9 -35 26 -33 90 6 34 21 65 42 69 48 5 7 8 7 8 0 0 -6 3 -6 8 1 11 15 92
55 101 49 10 -5 -19 -97 -34 -107 -5 -4 -7 -10 -3 -13 3 -4 0 -18 -7 -32 -8
-15 -12 -30 -9 -35 3 -4 1 -8 -4 -8 -10 0 -11 -5 -16 -88 -2 -34 1 -73 7 -85
14 -31 53 -49 67 -32 5 6 7 15 3 18 -3 4 -1 7 6 7 7 0 9 5 6 10 -3 6 1 13 9
16 9 3 14 10 11 14 -3 4 3 25 12 46 9 22 16 42 15 47 -1 4 3 7 10 7 6 0 8 3 5
7 -4 3 0 17 8 30 9 13 13 23 10 23 -4 0 1 8 11 17 11 12 13 18 5 21 -9 3 -8 7
1 16 8 6 22 36 32 66 11 30 23 60 28 67 6 7 7 17 3 23 -3 5 -1 10 4 10 6 0 11
11 11 25 0 14 4 25 8 25 10 0 9 101 -1 117 -4 6 -3 14 3 18 6 4 7 11 4 17 -4
5 -8 24 -9 41 -2 18 -6 44 -9 60 -2 15 0 27 5 27 5 0 9 -10 10 -22 4 -78 6
-98 12 -104 4 -4 2 -13 -4 -21 -7 -8 -8 -13 -1 -13 5 0 10 -25 10 -55 0 -31 2
-59 6 -62 3 -4 6 -1 6 5 0 7 5 12 10 12 6 0 24 14 40 30 16 16 27 30 23 30 -3
0 0 6 6 14 8 10 11 53 10 130 -1 64 1 119 4 123 7 6 8 0 11 -94 0 -28 5 -55
10 -60 6 -5 6 -2 1 6 -6 11 -4 13 9 8 10 -4 19 -1 22 8 4 8 10 12 15 9 5 -3 9
-2 10 3 0 4 3 17 5 28 15 61 23 315 10 315 -4 0 -3 6 3 13 6 8 9 16 6 19 -2 2
-7 29 -10 59 -8 90 -14 132 -25 180 -6 26 -13 55 -15 65 -2 11 -4 21 -6 24 -1
3 -3 10 -4 15 -2 6 -4 12 -5 15 -1 3 -3 12 -5 20 -7 37 -67 180 -75 180 -5 0
-7 7 -4 15 4 8 1 15 -7 15 -7 0 -9 3 -6 6 4 4 -2 19 -13 34 -11 15 -17 30 -13
34 3 3 1 6 -5 6 -7 0 -12 7 -12 15 0 8 -4 15 -10 15 -5 0 -10 7 -10 15 0 8 -4
15 -10 15 -5 0 -10 7 -10 15 0 8 -4 15 -10 15 -5 0 -10 5 -10 12 0 6 -7 18
-15 27 -9 9 -28 31 -44 50 l-28 34 7 -46z m240 -947 c0 -5 -4 -10 -10 -10 -5
0 -10 5 -10 10 0 6 5 10 10 10 6 0 10 -4 10 -10z m-155 -9 c3 -5 2 -12 -3 -15
-5 -3 -9 1 -9 9 0 17 3 19 12 6z m11 -50 c-1 -38 -11 -48 -14 -15 -2 23 4 44
12 44 1 0 2 -13 2 -29z m145 4 c1 -8 2 -23 3 -32 1 -10 5 -24 9 -30 5 -9 3
-13 -8 -13 -9 0 -13 5 -10 10 3 6 0 10 -7 10 -10 0 -10 2 0 9 15 9 15 17 1 44
-6 11 -6 17 1 17 5 0 11 -7 11 -15z m-141 -60 c-7 -8 -8 -15 -2 -15 5 0 12
-11 14 -25 3 -14 1 -25 -3 -25 -5 0 -10 5 -10 10 -1 6 -2 14 -3 19 0 5 -4 13
-8 17 -7 7 8 34 19 34 3 0 0 -7 -7 -15z m17 -81 c-3 -3 -12 -4 -19 -1 -8 3 -5
6 6 6 11 1 17 -2 13 -5z"/>
<path d="M1706 2970 c-11 -11 -32 -25 -48 -32 -15 -7 -28 -16 -28 -20 0 -5 -9
-8 -20 -8 -11 0 -20 -4 -20 -8 0 -5 -18 -17 -40 -27 -22 -10 -40 -22 -40 -27
0 -5 -4 -7 -9 -4 -16 10 -30 -35 -36 -111 -4 -54 5 -72 27 -53 22 19 172 110
181 110 12 0 87 77 80 83 -3 3 -1 12 3 19 13 21 14 41 1 57 -10 12 -9 13 1 7
11 -7 11 -4 0 13 -16 26 -27 26 -52 1z"/>
<path d="M1647 2693 c-2 -1 -33 -3 -70 -5 -37 -1 -67 -6 -67 -10 0 -3 -8 -9
-18 -12 -12 -4 -18 -15 -17 -34 3 -53 11 -59 78 -58 34 1 68 6 76 10 10 6 12
5 7 -2 -4 -6 11 -2 32 9 41 22 75 68 64 86 -6 9 -78 23 -85 16z"/>
<path d="M1505 2521 c7 -22 11 -42 8 -45 -4 -3 -1 -6 5 -6 7 0 12 -9 12 -19 0
-31 65 -45 118 -26 17 6 6 44 -18 65 -9 8 -25 27 -34 43 -15 23 -25 27 -62 27
l-43 0 14 -39z"/>
<path d="M3400 2020 c-9 -6 -9 -9 -1 -14 6 -4 9 -11 6 -16 -3 -4 9 -22 27 -39
17 -17 28 -31 23 -31 -4 0 2 -9 14 -19 14 -12 35 -19 57 -17 41 2 41 1 17 64
-3 9 -7 22 -7 27 -1 6 -8 19 -16 31 -12 16 -26 21 -62 21 -25 0 -52 -3 -58 -7z"/>
<path d="M3384 1853 c-36 -18 -69 -67 -57 -86 6 -9 36 -13 110 -12 55 0 99 3
96 8 -2 4 5 7 15 7 20 0 38 26 32 45 -1 6 -3 19 -4 30 -1 18 -9 20 -81 21 -53
1 -91 -3 -111 -13z"/>
<path d="M2246 1727 c-24 -17 -29 -84 -9 -117 14 -24 43 -44 155 -106 21 -12
45 -27 53 -34 8 -7 15 -9 15 -4 0 4 7 -1 15 -12 8 -10 15 -16 15 -12 0 11 44
-33 64 -64 21 -32 14 -64 -15 -73 -10 -4 -17 -10 -14 -15 3 -4 -3 -7 -12 -5
-10 1 -23 -2 -29 -7 -7 -5 -23 -11 -35 -14 -13 -3 -28 -6 -34 -7 -5 -2 -14 -5
-20 -8 -5 -4 -18 -5 -27 -4 -10 2 -18 -1 -18 -6 0 -5 -8 -9 -18 -9 -10 0 -22
-3 -26 -7 -10 -11 -36 -12 -36 -2 0 8 7 10 26 8 12 -1 31 35 30 55 -1 12 2 24
7 27 10 7 -20 66 -30 60 -5 -3 -13 -9 -19 -15 -6 -6 -22 -18 -34 -26 -33 -21
-70 -59 -70 -70 0 -6 -3 -10 -7 -10 -5 0 -8 24 -8 53 1 28 -1 54 -5 57 -3 3
-10 14 -16 24 -6 11 -22 29 -37 40 -22 16 -29 17 -42 6 -17 -14 -20 -105 -3
-127 5 -7 5 -14 -1 -17 -12 -8 -4 -52 16 -87 12 -20 22 -26 37 -23 12 3 28 7
36 8 8 2 14 11 14 20 -1 9 3 16 10 16 6 0 4 5 -4 11 -13 9 -13 10 0 6 8 -2 14
-12 12 -22 -3 -12 1 -16 12 -12 8 3 18 2 21 -3 4 -6 1 -11 -4 -11 -13 -2 -15
-2 -71 -18 -59 -18 -178 -21 -191 -5 -7 8 0 10 28 5 21 -4 53 -4 72 -1 32 5
33 6 18 21 -9 9 -14 19 -11 21 2 3 -7 16 -21 29 -13 13 -25 30 -25 37 0 6 -5
12 -11 12 -5 0 -7 5 -4 10 3 6 2 10 -3 10 -5 0 -17 18 -27 40 -10 22 -22 40
-27 40 -4 0 -8 5 -8 10 0 15 -38 50 -55 50 -8 0 -15 4 -15 8 0 5 -21 8 -46 8
-32 -1 -48 -6 -55 -18 -6 -10 -6 -18 -1 -18 8 0 29 -36 30 -53 0 -5 7 -14 15
-20 8 -7 27 -34 42 -62 15 -27 31 -55 36 -61 5 -6 6 -14 2 -17 -3 -4 -1 -7 5
-7 7 0 12 -7 12 -15 0 -9 6 -12 15 -9 8 4 15 1 15 -5 0 -15 -12 -14 -63 8 -25
11 -48 17 -51 14 -3 -4 -6 -1 -6 6 0 6 -6 11 -12 10 -7 -1 -26 3 -43 10 -16 7
-34 14 -40 15 -5 1 -16 5 -22 9 -7 5 -17 6 -22 2 -5 -3 -12 -2 -15 3 -3 4 -26
9 -52 11 -54 2 -109 -20 -117 -48 -5 -20 23 -51 48 -51 7 0 17 -5 20 -10 4 -6
10 -8 15 -5 5 3 11 1 15 -5 4 -6 11 -8 16 -5 5 4 9 1 9 -6 0 -7 3 -9 7 -6 3 4
17 0 30 -8 13 -9 23 -13 23 -10 0 4 10 -1 22 -9 12 -9 30 -16 40 -16 10 0 18
-5 18 -11 0 -5 4 -8 9 -4 5 3 16 -1 24 -9 8 -8 17 -12 21 -9 3 3 11 1 18 -4 7
-6 48 -21 91 -34 51 -15 76 -27 73 -35 -3 -7 17 -34 43 -61 39 -39 55 -49 86
-51 21 -2 42 -5 46 -8 4 -2 10 -1 12 3 3 5 47 8 99 7 54 0 96 4 100 10 5 7 8
6 8 -2 0 -7 5 -10 11 -6 17 10 106 16 91 5 -8 -4 -27 -7 -43 -6 -16 1 -29 0
-29 -4 0 -4 -17 -7 -37 -8 -21 -1 -70 -2 -109 -3 -72 -2 -80 -7 -60 -39 6 -10
5 -12 -2 -7 -7 4 -12 5 -12 2 0 -8 39 -27 68 -33 15 -4 55 -6 90 -7 34 0 62
-4 62 -9 0 -4 5 -5 12 -1 16 10 68 11 68 1 0 -5 5 -5 12 -1 16 10 68 11 68 1
0 -5 5 -5 12 -1 7 5 28 8 48 9 20 1 41 5 48 9 7 4 12 2 12 -6 0 -8 3 -9 8 -3
4 6 23 12 42 14 34 3 48 6 93 17 12 3 35 7 51 8 15 2 31 7 35 12 3 5 15 10 26
11 20 2 58 10 63 13 1 2 5 3 10 4 4 1 13 5 20 9 6 5 12 5 12 0 0 -4 4 -2 8 4
4 7 17 14 27 16 31 4 175 79 175 90 0 6 3 7 6 4 4 -4 20 3 35 14 16 11 29 17
29 12 0 -4 7 3 16 15 8 12 19 22 24 22 6 0 20 9 32 19 13 11 33 28 46 38 23
18 23 18 -51 16 -45 -1 -92 4 -118 13 -70 24 -129 56 -129 71 0 7 -7 13 -16
13 -8 0 -12 5 -9 10 3 6 2 10 -2 10 -5 0 -16 13 -26 29 -38 64 -177 170 -224
171 -7 0 -13 5 -13 10 0 6 -6 10 -13 10 -30 0 -284 114 -298 134 -4 5 -12 5
-18 2 -6 -4 -11 -3 -11 2 0 5 -38 29 -85 52 -47 23 -85 46 -85 51 0 5 -7 6
-15 3 -8 -4 -15 -1 -15 5 0 6 -5 11 -12 11 -6 0 -19 7 -28 15 -14 12 -19 13
-34 2z m14 -519 c0 -4 -7 -8 -15 -8 -8 0 -15 4 -15 8 0 5 7 9 15 9 8 0 15 -4
15 -9z m214 -178 c-6 -6 -26 -12 -45 -13 -19 -1 -39 -6 -46 -10 -6 -4 -14 -3
-17 2 -9 13 2 17 54 20 25 2 47 5 49 7 2 2 7 4 10 4 3 0 0 -5 -5 -10z m-124
-19 c0 -5 -16 -8 -35 -6 -20 1 -38 -2 -41 -7 -3 -4 -25 -8 -49 -8 -25 0 -45
-5 -48 -12 -3 -8 -6 -6 -6 5 -1 11 7 17 22 18 64 3 76 4 80 9 9 9 77 9 77 1z
m-246 -24 c-5 -14 -67 -17 -80 -4 -5 4 8 7 29 5 20 -1 39 1 43 5 11 11 14 8 8
-6z m52 1 c4 -7 3 -8 -4 -4 -7 4 -12 3 -12 -2 0 -5 -7 -9 -16 -9 -14 0 -14 2
2 14 22 16 21 16 30 1z m-146 -8 c0 -5 -5 -10 -11 -10 -5 0 -7 5 -4 10 3 6 8
10 11 10 2 0 4 -4 4 -10z"/>
</g>
</svg>
